G75*
%MOIN*%
%OFA0B0*%
%FSLAX24Y24*%
%IPPOS*%
%LPD*%
%AMOC8*
5,1,8,0,0,1.08239X$1,22.5*
%
%ADD10C,0.0000*%
%ADD11C,0.0060*%
%ADD12C,0.0160*%
%ADD13C,0.0050*%
%ADD14C,0.0070*%
%ADD15C,0.0120*%
%ADD16C,0.0020*%
%ADD17C,0.0040*%
%ADD18R,0.0167X0.0128*%
%ADD19R,0.0138X0.0138*%
D10*
X000100Y000100D02*
X000100Y017596D01*
X030470Y017596D01*
X030470Y000100D01*
X000100Y000100D01*
D11*
X000150Y001200D02*
X000150Y002250D01*
X000150Y002950D01*
X000650Y002800D01*
X000650Y002400D01*
X000150Y002250D01*
X000150Y002950D02*
X000150Y004250D01*
X000150Y004950D01*
X000650Y004800D01*
X000650Y004400D01*
X000150Y004250D01*
X000150Y004950D02*
X000150Y006000D01*
X001350Y006000D01*
X001350Y001200D01*
X000150Y001200D01*
X001350Y001200D02*
X004900Y001200D01*
X004900Y002350D01*
X004900Y002850D02*
X004900Y004350D01*
X004900Y004850D02*
X004900Y006000D01*
X001350Y006000D01*
X001879Y006553D02*
X001986Y006446D01*
X002413Y006446D01*
X002520Y006553D01*
X002520Y006767D01*
X002413Y006873D01*
X001986Y006873D01*
X001879Y006767D01*
X001879Y006553D01*
X001879Y007091D02*
X002413Y007091D01*
X002520Y007198D01*
X002520Y007411D01*
X002413Y007518D01*
X001879Y007518D01*
X001879Y007735D02*
X001879Y008162D01*
X001879Y007949D02*
X002520Y007949D01*
X003879Y008162D02*
X004520Y008162D01*
X003879Y007735D01*
X004520Y007735D01*
X004520Y007519D02*
X004520Y007306D01*
X004520Y007413D02*
X003879Y007413D01*
X003879Y007519D02*
X003879Y007306D01*
X003850Y009100D02*
X003600Y009350D01*
X003600Y009850D01*
X003850Y010100D01*
X003600Y010350D01*
X003600Y010850D01*
X003850Y011100D01*
X003600Y011350D01*
X003600Y011850D01*
X003850Y012100D01*
X004350Y012100D01*
X004600Y011850D01*
X004600Y011350D01*
X004350Y011100D01*
X004600Y010850D01*
X004600Y010350D01*
X004350Y010100D01*
X004600Y009850D01*
X004600Y009350D01*
X004350Y009100D01*
X003850Y009100D01*
X002600Y009350D02*
X002600Y009850D01*
X002350Y010100D01*
X002600Y010350D01*
X002600Y010850D01*
X002350Y011100D01*
X002600Y011350D01*
X002600Y011850D01*
X002350Y012100D01*
X001850Y012100D01*
X001600Y011850D01*
X001600Y011350D01*
X001850Y011100D01*
X001600Y010850D01*
X001600Y010350D01*
X001850Y010100D01*
X001600Y009850D01*
X001600Y009350D01*
X001850Y009100D01*
X002350Y009100D01*
X002600Y009350D01*
X005179Y009880D02*
X005179Y010307D01*
X005179Y010094D02*
X005820Y010094D01*
X005820Y010525D02*
X005179Y010525D01*
X005500Y010525D02*
X005500Y010952D01*
X005820Y010952D02*
X005179Y010952D01*
X007630Y011130D02*
X007630Y011771D01*
X007950Y011771D01*
X008057Y011664D01*
X008057Y011450D01*
X007950Y011344D01*
X007630Y011344D01*
X008275Y011450D02*
X008275Y011237D01*
X008381Y011130D01*
X008595Y011130D01*
X008702Y011237D01*
X008702Y011450D01*
X008595Y011557D01*
X008381Y011557D01*
X008275Y011450D01*
X008919Y011557D02*
X008919Y011237D01*
X009026Y011130D01*
X009133Y011237D01*
X009239Y011130D01*
X009346Y011237D01*
X009346Y011557D01*
X009564Y011450D02*
X009670Y011557D01*
X009884Y011557D01*
X009991Y011450D01*
X009991Y011344D01*
X009564Y011344D01*
X009564Y011450D02*
X009564Y011237D01*
X009670Y011130D01*
X009884Y011130D01*
X010208Y011130D02*
X010208Y011557D01*
X010208Y011344D02*
X010422Y011557D01*
X010528Y011557D01*
X010745Y012130D02*
X011066Y012130D01*
X011172Y012237D01*
X011066Y012344D01*
X010852Y012344D01*
X010745Y012450D01*
X010852Y012557D01*
X011172Y012557D01*
X011390Y012450D02*
X011390Y012237D01*
X011497Y012130D01*
X011710Y012130D01*
X011817Y012344D02*
X011390Y012344D01*
X011390Y012450D02*
X011497Y012557D01*
X011710Y012557D01*
X011817Y012450D01*
X011817Y012344D01*
X010528Y012557D02*
X010422Y012557D01*
X010208Y012344D01*
X010208Y012557D02*
X010208Y012130D01*
X009991Y012344D02*
X009564Y012344D01*
X009564Y012450D02*
X009564Y012237D01*
X009670Y012130D01*
X009884Y012130D01*
X009991Y012344D02*
X009991Y012450D01*
X009884Y012557D01*
X009670Y012557D01*
X009564Y012450D01*
X009346Y012557D02*
X009133Y012130D01*
X008919Y012557D01*
X008702Y012450D02*
X008702Y012344D01*
X008275Y012344D01*
X008275Y012450D02*
X008275Y012237D01*
X008381Y012130D01*
X008595Y012130D01*
X008702Y012450D02*
X008595Y012557D01*
X008381Y012557D01*
X008275Y012450D01*
X008057Y012450D02*
X007950Y012344D01*
X007630Y012344D01*
X007844Y012344D02*
X008057Y012130D01*
X008057Y012450D02*
X008057Y012664D01*
X007950Y012771D01*
X007630Y012771D01*
X007630Y012130D01*
X007630Y013130D02*
X007630Y013771D01*
X008057Y013130D01*
X008057Y013771D01*
X008275Y013450D02*
X008381Y013557D01*
X008595Y013557D01*
X008702Y013450D01*
X008702Y013344D01*
X008275Y013344D01*
X008275Y013450D02*
X008275Y013237D01*
X008381Y013130D01*
X008595Y013130D01*
X008919Y013237D02*
X009026Y013130D01*
X009346Y013130D01*
X009346Y013557D01*
X009564Y013557D02*
X009777Y013557D01*
X009670Y013664D02*
X009670Y013237D01*
X009777Y013130D01*
X009993Y013130D02*
X009993Y013557D01*
X009993Y013344D02*
X010207Y013557D01*
X010314Y013557D01*
X010637Y013557D02*
X010851Y013557D01*
X010958Y013450D01*
X010958Y013130D01*
X010637Y013130D01*
X010530Y013237D01*
X010637Y013344D01*
X010958Y013344D01*
X011175Y013130D02*
X011389Y013130D01*
X011282Y013130D02*
X011282Y013771D01*
X011175Y013771D01*
X011389Y014130D02*
X011282Y014237D01*
X011282Y014450D01*
X011389Y014557D01*
X011709Y014557D01*
X011709Y014771D02*
X011709Y014130D01*
X011389Y014130D01*
X010959Y014557D02*
X010745Y014344D01*
X010745Y014557D02*
X010745Y014130D01*
X010528Y014130D02*
X010208Y014130D01*
X010101Y014237D01*
X010208Y014344D01*
X010528Y014344D01*
X010528Y014450D02*
X010528Y014130D01*
X010528Y014450D02*
X010421Y014557D01*
X010208Y014557D01*
X009883Y014557D02*
X009883Y014237D01*
X009776Y014130D01*
X009670Y014237D01*
X009563Y014130D01*
X009456Y014237D01*
X009456Y014557D01*
X009239Y014557D02*
X009133Y014557D01*
X008919Y014344D01*
X008919Y014557D02*
X008919Y014130D01*
X008702Y014237D02*
X008702Y014450D01*
X008595Y014557D01*
X008381Y014557D01*
X008275Y014450D01*
X008275Y014237D01*
X008381Y014130D01*
X008595Y014130D01*
X008702Y014237D01*
X008057Y014771D02*
X007630Y014771D01*
X007630Y014130D01*
X007630Y014450D02*
X007844Y014450D01*
X007630Y015130D02*
X008057Y015130D01*
X008275Y015237D02*
X008381Y015130D01*
X008595Y015130D01*
X008702Y015237D01*
X008702Y015450D01*
X008595Y015557D01*
X008381Y015557D01*
X008275Y015450D01*
X008275Y015237D01*
X008919Y015237D02*
X009026Y015130D01*
X009133Y015237D01*
X009239Y015130D01*
X009346Y015237D01*
X009346Y015557D01*
X008919Y015557D02*
X008919Y015237D01*
X010208Y015130D02*
X010528Y015130D01*
X010635Y015237D01*
X010635Y015344D01*
X010528Y015450D01*
X010208Y015450D01*
X010528Y015450D02*
X010635Y015557D01*
X010635Y015664D01*
X010528Y015771D01*
X010208Y015771D01*
X010208Y015130D01*
X010853Y015237D02*
X010960Y015130D01*
X011280Y015130D01*
X011280Y015450D01*
X011173Y015557D01*
X010960Y015557D01*
X010960Y015344D02*
X011280Y015344D01*
X011497Y015557D02*
X011711Y015557D01*
X011604Y015664D02*
X011604Y015237D01*
X011711Y015130D01*
X012034Y015237D02*
X012141Y015130D01*
X012034Y015237D02*
X012034Y015664D01*
X011927Y015557D02*
X012141Y015557D01*
X010960Y015344D02*
X010853Y015237D01*
X010959Y014557D02*
X011066Y014557D01*
X008919Y013557D02*
X008919Y013237D01*
X005820Y013987D02*
X005713Y013880D01*
X005820Y013987D02*
X005820Y014200D01*
X005713Y014307D01*
X005606Y014307D01*
X005500Y014200D01*
X005500Y013987D01*
X005393Y013880D01*
X005286Y013880D01*
X005179Y013987D01*
X005179Y014200D01*
X005286Y014307D01*
X005179Y014525D02*
X005179Y014952D01*
X005179Y014738D02*
X005820Y014738D01*
X004600Y014850D02*
X004600Y014350D01*
X004350Y014100D01*
X004600Y013850D01*
X004600Y013350D01*
X004350Y013100D01*
X003850Y013100D01*
X003600Y013350D01*
X003600Y013850D01*
X003850Y014100D01*
X003600Y014350D01*
X003600Y014850D01*
X003850Y015100D01*
X003600Y015350D01*
X003600Y015850D01*
X003850Y016100D01*
X004350Y016100D01*
X004600Y015850D01*
X004600Y015350D01*
X004350Y015100D01*
X004600Y014850D01*
X002600Y014850D02*
X002600Y014350D01*
X002350Y014100D01*
X002600Y013850D01*
X002600Y013350D01*
X002350Y013100D01*
X001850Y013100D01*
X001600Y013350D01*
X001600Y013850D01*
X001850Y014100D01*
X001600Y014350D01*
X001600Y014850D01*
X001850Y015100D01*
X001600Y015350D01*
X001600Y015850D01*
X001850Y016100D01*
X002350Y016100D01*
X002600Y015850D01*
X002600Y015350D01*
X002350Y015100D01*
X002600Y014850D01*
X007630Y015130D02*
X007630Y015771D01*
X022700Y014100D02*
X022700Y012100D01*
X026500Y012100D01*
X026500Y014100D01*
X022700Y014100D01*
X026630Y013271D02*
X026630Y012630D01*
X027057Y012630D02*
X027057Y013271D01*
X026844Y013057D01*
X026630Y013271D01*
X027381Y013057D02*
X027595Y013057D01*
X027702Y012950D01*
X027702Y012630D01*
X027381Y012630D01*
X027275Y012737D01*
X027381Y012844D01*
X027702Y012844D01*
X027919Y013057D02*
X028346Y012630D01*
X027919Y012630D02*
X028346Y013057D01*
X026500Y011600D02*
X026500Y009600D01*
X022700Y009600D01*
X022700Y011600D01*
X026500Y011600D01*
X026630Y010771D02*
X027057Y010130D01*
X027057Y010771D01*
X027275Y010557D02*
X027275Y010237D01*
X027381Y010130D01*
X027702Y010130D01*
X027702Y010557D01*
X027919Y010771D02*
X028026Y010771D01*
X028026Y010130D01*
X027919Y010130D02*
X028133Y010130D01*
X028349Y010130D02*
X028562Y010130D01*
X028456Y010130D02*
X028456Y010771D01*
X028349Y010771D01*
X026630Y010771D02*
X026630Y010130D01*
X026500Y009100D02*
X026500Y007100D01*
X022700Y007100D01*
X022700Y009100D01*
X026500Y009100D01*
X027381Y008377D02*
X027381Y008271D01*
X027381Y008057D02*
X027381Y007630D01*
X027275Y007630D02*
X027488Y007630D01*
X027704Y007630D02*
X027704Y008057D01*
X028025Y008057D01*
X028131Y007950D01*
X028131Y007630D01*
X027381Y008057D02*
X027275Y008057D01*
X027057Y008271D02*
X027057Y007630D01*
X026630Y007630D02*
X026630Y008271D01*
X026844Y008057D01*
X027057Y008271D01*
X026500Y006600D02*
X026500Y004600D01*
X022700Y004600D01*
X022700Y006600D01*
X026500Y006600D01*
X026630Y005771D02*
X026844Y005557D01*
X027057Y005771D01*
X027057Y005130D01*
X027275Y005237D02*
X027381Y005344D01*
X027702Y005344D01*
X027702Y005450D02*
X027702Y005130D01*
X027381Y005130D01*
X027275Y005237D01*
X027595Y005557D02*
X027702Y005450D01*
X027595Y005557D02*
X027381Y005557D01*
X027919Y005557D02*
X028346Y005130D01*
X027919Y005130D02*
X028346Y005557D01*
X026630Y005771D02*
X026630Y005130D01*
X026500Y004100D02*
X026500Y002100D01*
X022700Y002100D01*
X022700Y004100D01*
X026500Y004100D01*
X027381Y003377D02*
X027381Y003271D01*
X027381Y003057D02*
X027381Y002630D01*
X027275Y002630D02*
X027488Y002630D01*
X027704Y002630D02*
X027704Y003057D01*
X028025Y003057D01*
X028131Y002950D01*
X028131Y002630D01*
X027381Y003057D02*
X027275Y003057D01*
X027057Y003271D02*
X027057Y002630D01*
X026630Y002630D02*
X026630Y003271D01*
X026844Y003057D01*
X027057Y003271D01*
X027130Y001271D02*
X027557Y001271D01*
X027344Y001271D02*
X027344Y000630D01*
X027775Y000630D02*
X027775Y001271D01*
X027775Y000950D02*
X028202Y000950D01*
X028202Y000630D02*
X028202Y001271D01*
X027988Y014630D02*
X027988Y015271D01*
X027775Y015271D02*
X028202Y015271D01*
X027557Y015164D02*
X027450Y015271D01*
X027237Y015271D01*
X027130Y015164D01*
X027130Y015057D01*
X027237Y014950D01*
X027450Y014950D01*
X027557Y014844D01*
X027557Y014737D01*
X027450Y014630D01*
X027237Y014630D01*
X027130Y014737D01*
D12*
X026600Y014100D02*
X029100Y014100D01*
X029100Y007600D01*
X029100Y006100D02*
X029100Y001600D01*
X026600Y001600D01*
D13*
X026325Y003375D02*
X026025Y003375D01*
X026175Y003375D02*
X026175Y003825D01*
X026025Y003675D01*
X023175Y003675D02*
X023100Y003600D01*
X023175Y003525D01*
X023175Y003450D01*
X023100Y003375D01*
X022950Y003375D01*
X022875Y003450D01*
X023025Y003600D02*
X023100Y003600D01*
X023175Y003675D02*
X023175Y003750D01*
X023100Y003825D01*
X022950Y003825D01*
X022875Y003750D01*
X022445Y003486D02*
X022445Y003185D01*
X022445Y003336D02*
X021995Y003336D01*
X022145Y003185D01*
X022220Y003025D02*
X022295Y002950D01*
X022295Y002725D01*
X022445Y002725D02*
X021995Y002725D01*
X021995Y002950D01*
X022070Y003025D01*
X022220Y003025D01*
X022295Y002875D02*
X022445Y003025D01*
X022445Y005225D02*
X021995Y005225D01*
X021995Y005450D01*
X022070Y005525D01*
X022220Y005525D01*
X022295Y005450D01*
X022295Y005225D01*
X022295Y005375D02*
X022445Y005525D01*
X022445Y005685D02*
X022145Y005986D01*
X022070Y005986D01*
X021995Y005911D01*
X021995Y005760D01*
X022070Y005685D01*
X022445Y005685D02*
X022445Y005986D01*
X022875Y005950D02*
X022950Y005875D01*
X023100Y005875D01*
X023175Y005950D01*
X023175Y006025D01*
X023100Y006100D01*
X023025Y006100D01*
X023100Y006100D02*
X023175Y006175D01*
X023175Y006250D01*
X023100Y006325D01*
X022950Y006325D01*
X022875Y006250D01*
X022445Y007725D02*
X021995Y007725D01*
X021995Y007950D01*
X022070Y008025D01*
X022220Y008025D01*
X022295Y007950D01*
X022295Y007725D01*
X022295Y007875D02*
X022445Y008025D01*
X022370Y008185D02*
X022445Y008260D01*
X022445Y008411D01*
X022370Y008486D01*
X022295Y008486D01*
X022220Y008411D01*
X022220Y008336D01*
X022220Y008411D02*
X022145Y008486D01*
X022070Y008486D01*
X021995Y008411D01*
X021995Y008260D01*
X022070Y008185D01*
X022875Y008450D02*
X022950Y008375D01*
X023100Y008375D01*
X023175Y008450D01*
X023175Y008525D01*
X023100Y008600D01*
X023025Y008600D01*
X023100Y008600D02*
X023175Y008675D01*
X023175Y008750D01*
X023100Y008825D01*
X022950Y008825D01*
X022875Y008750D01*
X022445Y010225D02*
X021995Y010225D01*
X021995Y010450D01*
X022070Y010525D01*
X022220Y010525D01*
X022295Y010450D01*
X022295Y010225D01*
X022295Y010375D02*
X022445Y010525D01*
X022220Y010685D02*
X022220Y010986D01*
X022445Y010911D02*
X021995Y010911D01*
X022220Y010685D01*
X022875Y010950D02*
X022950Y010875D01*
X023100Y010875D01*
X023175Y010950D01*
X023175Y011025D01*
X023100Y011100D01*
X023025Y011100D01*
X023100Y011100D02*
X023175Y011175D01*
X023175Y011250D01*
X023100Y011325D01*
X022950Y011325D01*
X022875Y011250D01*
X022445Y012725D02*
X021995Y012725D01*
X021995Y012950D01*
X022070Y013025D01*
X022220Y013025D01*
X022295Y012950D01*
X022295Y012725D01*
X022295Y012875D02*
X022445Y013025D01*
X022370Y013185D02*
X022445Y013260D01*
X022445Y013411D01*
X022370Y013486D01*
X022220Y013486D01*
X022145Y013411D01*
X022145Y013336D01*
X022220Y013185D01*
X021995Y013185D01*
X021995Y013486D01*
X021551Y013727D02*
X021450Y013625D01*
X021246Y013625D01*
X021144Y013727D01*
X021551Y014134D01*
X021551Y013727D01*
X021144Y013727D02*
X021144Y014134D01*
X021246Y014236D01*
X021450Y014236D01*
X021551Y014134D01*
X020942Y013727D02*
X020942Y013625D01*
X020840Y013625D01*
X020840Y013727D01*
X020942Y013727D01*
X020640Y013625D02*
X020233Y013625D01*
X020436Y013625D02*
X020436Y014236D01*
X020233Y014032D01*
X020032Y013829D02*
X020032Y014236D01*
X019625Y014236D02*
X019625Y013829D01*
X019829Y013625D01*
X020032Y013829D01*
X019930Y014615D02*
X019727Y014615D01*
X019625Y014717D01*
X019625Y015226D01*
X020032Y015226D02*
X020032Y014717D01*
X019930Y014615D01*
X020233Y014615D02*
X020436Y014615D01*
X020334Y014615D02*
X020334Y015226D01*
X020233Y015226D01*
X020740Y015124D02*
X020740Y014717D01*
X020841Y014615D01*
X021043Y014615D02*
X021247Y014615D01*
X021145Y014615D02*
X021145Y015022D01*
X021043Y015022D01*
X020841Y015022D02*
X020638Y015022D01*
X021145Y015226D02*
X021145Y015327D01*
X021247Y015605D02*
X021247Y015910D01*
X021146Y016012D01*
X020840Y016012D01*
X020840Y015605D01*
X020640Y015707D02*
X020640Y015910D01*
X020538Y016012D01*
X020334Y016012D01*
X020233Y015910D01*
X020233Y015707D01*
X020334Y015605D01*
X020538Y015605D01*
X020640Y015707D01*
X020032Y015707D02*
X019930Y015605D01*
X019727Y015605D01*
X019625Y015707D01*
X019625Y016114D01*
X019727Y016216D01*
X019930Y016216D01*
X020032Y016114D01*
X019930Y016595D02*
X019727Y016595D01*
X019625Y016697D01*
X019727Y016900D02*
X019930Y016900D01*
X020032Y016799D01*
X020032Y016697D01*
X019930Y016595D01*
X020233Y016697D02*
X020233Y016900D01*
X020334Y017002D01*
X020538Y017002D01*
X020640Y016900D01*
X020640Y016799D01*
X020233Y016799D01*
X020233Y016697D02*
X020334Y016595D01*
X020538Y016595D01*
X020840Y016595D02*
X021044Y016595D01*
X020942Y016595D02*
X020942Y017002D01*
X020840Y017002D01*
X020942Y017206D02*
X020942Y017307D01*
X021246Y017206D02*
X021347Y017206D01*
X021347Y016595D01*
X021246Y016595D02*
X021449Y016595D01*
X021651Y016697D02*
X021752Y016595D01*
X021854Y016697D01*
X021956Y016595D01*
X022058Y016697D01*
X022058Y017002D01*
X022258Y017002D02*
X022360Y017002D01*
X022360Y016595D01*
X022258Y016595D02*
X022462Y016595D01*
X022664Y016595D02*
X022664Y017002D01*
X022969Y017002D01*
X023071Y016900D01*
X023071Y016595D01*
X023271Y016697D02*
X023271Y016900D01*
X023373Y017002D01*
X023678Y017002D01*
X023678Y017206D02*
X023678Y016595D01*
X023373Y016595D01*
X023271Y016697D01*
X023879Y016697D02*
X023981Y016595D01*
X024184Y016595D01*
X024286Y016799D02*
X023879Y016799D01*
X023879Y016900D02*
X023879Y016697D01*
X023879Y016900D02*
X023981Y017002D01*
X024184Y017002D01*
X024286Y016900D01*
X024286Y016799D01*
X024487Y017002D02*
X024487Y016595D01*
X024894Y016595D02*
X024894Y016900D01*
X024792Y017002D01*
X024487Y017002D01*
X023069Y016216D02*
X023069Y015605D01*
X022967Y015605D02*
X023171Y015605D01*
X023373Y015707D02*
X023373Y015910D01*
X023474Y016012D01*
X023678Y016012D01*
X023780Y015910D01*
X023780Y015809D01*
X023373Y015809D01*
X023373Y015707D02*
X023474Y015605D01*
X023678Y015605D01*
X023980Y015605D02*
X023980Y016012D01*
X023980Y015809D02*
X024184Y016012D01*
X024286Y016012D01*
X023069Y016216D02*
X022967Y016216D01*
X022665Y016012D02*
X022461Y016012D01*
X022360Y015910D01*
X022360Y015707D01*
X022461Y015605D01*
X022665Y015605D01*
X022767Y015707D01*
X022767Y015910D01*
X022665Y016012D01*
X022159Y016012D02*
X022057Y016012D01*
X021853Y015809D01*
X021853Y016012D02*
X021853Y015605D01*
X021652Y015605D02*
X021550Y015707D01*
X021550Y016114D01*
X021448Y016012D02*
X021652Y016012D01*
X021651Y016697D02*
X021651Y017002D01*
X022360Y017206D02*
X022360Y017307D01*
X020032Y017104D02*
X019930Y017206D01*
X019727Y017206D01*
X019625Y017104D01*
X019625Y017002D01*
X019727Y016900D01*
X022765Y015124D02*
X022765Y014717D01*
X022867Y014615D01*
X023069Y014717D02*
X023069Y014920D01*
X023170Y015022D01*
X023374Y015022D01*
X023476Y014920D01*
X023476Y014819D01*
X023069Y014819D01*
X023069Y014717D02*
X023170Y014615D01*
X023374Y014615D01*
X022867Y015022D02*
X022664Y015022D01*
X022463Y014920D02*
X022463Y014615D01*
X022158Y014615D01*
X022056Y014717D01*
X022158Y014819D01*
X022463Y014819D01*
X022463Y014920D02*
X022361Y015022D01*
X022158Y015022D01*
X021855Y014920D02*
X021855Y014615D01*
X021652Y014615D02*
X021652Y014920D01*
X021753Y015022D01*
X021855Y014920D01*
X021652Y014920D02*
X021550Y015022D01*
X021448Y015022D01*
X021448Y014615D01*
X022875Y013750D02*
X022950Y013825D01*
X023100Y013825D01*
X023175Y013750D01*
X023175Y013675D01*
X023100Y013600D01*
X023175Y013525D01*
X023175Y013450D01*
X023100Y013375D01*
X022950Y013375D01*
X022875Y013450D01*
X023025Y013600D02*
X023100Y013600D01*
X026025Y013675D02*
X026175Y013825D01*
X026175Y013375D01*
X026025Y013375D02*
X026325Y013375D01*
X026175Y011325D02*
X026175Y010875D01*
X026025Y010875D02*
X026325Y010875D01*
X026025Y011175D02*
X026175Y011325D01*
X026175Y008825D02*
X026175Y008375D01*
X026025Y008375D02*
X026325Y008375D01*
X026025Y008675D02*
X026175Y008825D01*
X026175Y006325D02*
X026175Y005875D01*
X026025Y005875D02*
X026325Y005875D01*
X026025Y006175D02*
X026175Y006325D01*
X004846Y012500D02*
X004546Y012500D01*
X004771Y012725D01*
X004771Y012275D01*
X004386Y012425D02*
X004386Y012725D01*
X004325Y012775D02*
X003875Y012775D01*
X004025Y012625D01*
X003925Y012650D02*
X003850Y012725D01*
X003700Y012725D01*
X003625Y012650D01*
X003625Y012575D01*
X003700Y012500D01*
X003850Y012500D01*
X003925Y012425D01*
X003925Y012350D01*
X003850Y012275D01*
X003700Y012275D01*
X003625Y012350D01*
X004085Y012425D02*
X004085Y012725D01*
X004325Y012625D02*
X004325Y012925D01*
X004386Y012425D02*
X004236Y012275D01*
X004085Y012425D01*
X002846Y012275D02*
X002546Y012275D01*
X002846Y012575D01*
X002846Y012650D01*
X002771Y012725D01*
X002621Y012725D01*
X002546Y012650D01*
X002386Y012725D02*
X002386Y012425D01*
X002236Y012275D01*
X002085Y012425D01*
X002085Y012725D01*
X002025Y012625D02*
X001875Y012775D01*
X002325Y012775D01*
X002325Y012625D02*
X002325Y012925D01*
X001925Y012650D02*
X001850Y012725D01*
X001700Y012725D01*
X001625Y012650D01*
X001625Y012575D01*
X001700Y012500D01*
X001850Y012500D01*
X001925Y012425D01*
X001925Y012350D01*
X001850Y012275D01*
X001700Y012275D01*
X001625Y012350D01*
X002325Y008925D02*
X002325Y008625D01*
X002325Y008775D02*
X001875Y008775D01*
X002025Y008625D01*
X003875Y008775D02*
X004325Y008775D01*
X004325Y008625D02*
X004325Y008925D01*
X004025Y008625D02*
X003875Y008775D01*
X004325Y005265D02*
X004325Y004965D01*
X004325Y005115D02*
X003875Y005115D01*
X004025Y004965D01*
X004025Y003365D02*
X003950Y003365D01*
X003875Y003290D01*
X003875Y003140D01*
X003950Y003065D01*
X004025Y003365D02*
X004325Y003065D01*
X004325Y003365D01*
X004236Y016275D02*
X004386Y016425D01*
X004386Y016725D01*
X004546Y016650D02*
X004621Y016725D01*
X004771Y016725D01*
X004846Y016650D01*
X004846Y016575D01*
X004771Y016500D01*
X004846Y016425D01*
X004846Y016350D01*
X004771Y016275D01*
X004621Y016275D01*
X004546Y016350D01*
X004696Y016500D02*
X004771Y016500D01*
X004236Y016275D02*
X004085Y016425D01*
X004085Y016725D01*
X003925Y016650D02*
X003850Y016725D01*
X003700Y016725D01*
X003625Y016650D01*
X003625Y016575D01*
X003700Y016500D01*
X003850Y016500D01*
X003925Y016425D01*
X003925Y016350D01*
X003850Y016275D01*
X003700Y016275D01*
X003625Y016350D01*
X002846Y016275D02*
X002546Y016275D01*
X002696Y016275D02*
X002696Y016725D01*
X002546Y016575D01*
X002386Y016425D02*
X002386Y016725D01*
X002085Y016725D02*
X002085Y016425D01*
X002236Y016275D01*
X002386Y016425D01*
X001925Y016425D02*
X001850Y016500D01*
X001700Y016500D01*
X001625Y016575D01*
X001625Y016650D01*
X001700Y016725D01*
X001850Y016725D01*
X001925Y016650D01*
X001925Y016425D02*
X001925Y016350D01*
X001850Y016275D01*
X001700Y016275D01*
X001625Y016350D01*
D14*
X005765Y005811D02*
X005765Y005390D01*
X005765Y005601D02*
X005134Y005601D01*
X005345Y005390D01*
X005134Y005166D02*
X005765Y004746D01*
X005765Y005166D02*
X005134Y004746D01*
D15*
X025800Y004900D02*
X026200Y005300D01*
X025800Y007400D02*
X026200Y007800D01*
X025800Y009900D02*
X026200Y010300D01*
X025800Y012400D02*
X026200Y012800D01*
X026200Y002800D02*
X025800Y002400D01*
D16*
X025750Y002600D02*
X025752Y002631D01*
X025758Y002662D01*
X025768Y002692D01*
X025781Y002720D01*
X025798Y002747D01*
X025818Y002771D01*
X025841Y002793D01*
X025866Y002811D01*
X025894Y002826D01*
X025923Y002838D01*
X025953Y002846D01*
X025984Y002850D01*
X026016Y002850D01*
X026047Y002846D01*
X026077Y002838D01*
X026106Y002826D01*
X026134Y002811D01*
X026159Y002793D01*
X026182Y002771D01*
X026202Y002747D01*
X026219Y002720D01*
X026232Y002692D01*
X026242Y002662D01*
X026248Y002631D01*
X026250Y002600D01*
X026248Y002569D01*
X026242Y002538D01*
X026232Y002508D01*
X026219Y002480D01*
X026202Y002453D01*
X026182Y002429D01*
X026159Y002407D01*
X026134Y002389D01*
X026106Y002374D01*
X026077Y002362D01*
X026047Y002354D01*
X026016Y002350D01*
X025984Y002350D01*
X025953Y002354D01*
X025923Y002362D01*
X025894Y002374D01*
X025866Y002389D01*
X025841Y002407D01*
X025818Y002429D01*
X025798Y002453D01*
X025781Y002480D01*
X025768Y002508D01*
X025758Y002538D01*
X025752Y002569D01*
X025750Y002600D01*
X025750Y005100D02*
X025752Y005131D01*
X025758Y005162D01*
X025768Y005192D01*
X025781Y005220D01*
X025798Y005247D01*
X025818Y005271D01*
X025841Y005293D01*
X025866Y005311D01*
X025894Y005326D01*
X025923Y005338D01*
X025953Y005346D01*
X025984Y005350D01*
X026016Y005350D01*
X026047Y005346D01*
X026077Y005338D01*
X026106Y005326D01*
X026134Y005311D01*
X026159Y005293D01*
X026182Y005271D01*
X026202Y005247D01*
X026219Y005220D01*
X026232Y005192D01*
X026242Y005162D01*
X026248Y005131D01*
X026250Y005100D01*
X026248Y005069D01*
X026242Y005038D01*
X026232Y005008D01*
X026219Y004980D01*
X026202Y004953D01*
X026182Y004929D01*
X026159Y004907D01*
X026134Y004889D01*
X026106Y004874D01*
X026077Y004862D01*
X026047Y004854D01*
X026016Y004850D01*
X025984Y004850D01*
X025953Y004854D01*
X025923Y004862D01*
X025894Y004874D01*
X025866Y004889D01*
X025841Y004907D01*
X025818Y004929D01*
X025798Y004953D01*
X025781Y004980D01*
X025768Y005008D01*
X025758Y005038D01*
X025752Y005069D01*
X025750Y005100D01*
X025750Y007600D02*
X025752Y007631D01*
X025758Y007662D01*
X025768Y007692D01*
X025781Y007720D01*
X025798Y007747D01*
X025818Y007771D01*
X025841Y007793D01*
X025866Y007811D01*
X025894Y007826D01*
X025923Y007838D01*
X025953Y007846D01*
X025984Y007850D01*
X026016Y007850D01*
X026047Y007846D01*
X026077Y007838D01*
X026106Y007826D01*
X026134Y007811D01*
X026159Y007793D01*
X026182Y007771D01*
X026202Y007747D01*
X026219Y007720D01*
X026232Y007692D01*
X026242Y007662D01*
X026248Y007631D01*
X026250Y007600D01*
X026248Y007569D01*
X026242Y007538D01*
X026232Y007508D01*
X026219Y007480D01*
X026202Y007453D01*
X026182Y007429D01*
X026159Y007407D01*
X026134Y007389D01*
X026106Y007374D01*
X026077Y007362D01*
X026047Y007354D01*
X026016Y007350D01*
X025984Y007350D01*
X025953Y007354D01*
X025923Y007362D01*
X025894Y007374D01*
X025866Y007389D01*
X025841Y007407D01*
X025818Y007429D01*
X025798Y007453D01*
X025781Y007480D01*
X025768Y007508D01*
X025758Y007538D01*
X025752Y007569D01*
X025750Y007600D01*
X025750Y010100D02*
X025752Y010131D01*
X025758Y010162D01*
X025768Y010192D01*
X025781Y010220D01*
X025798Y010247D01*
X025818Y010271D01*
X025841Y010293D01*
X025866Y010311D01*
X025894Y010326D01*
X025923Y010338D01*
X025953Y010346D01*
X025984Y010350D01*
X026016Y010350D01*
X026047Y010346D01*
X026077Y010338D01*
X026106Y010326D01*
X026134Y010311D01*
X026159Y010293D01*
X026182Y010271D01*
X026202Y010247D01*
X026219Y010220D01*
X026232Y010192D01*
X026242Y010162D01*
X026248Y010131D01*
X026250Y010100D01*
X026248Y010069D01*
X026242Y010038D01*
X026232Y010008D01*
X026219Y009980D01*
X026202Y009953D01*
X026182Y009929D01*
X026159Y009907D01*
X026134Y009889D01*
X026106Y009874D01*
X026077Y009862D01*
X026047Y009854D01*
X026016Y009850D01*
X025984Y009850D01*
X025953Y009854D01*
X025923Y009862D01*
X025894Y009874D01*
X025866Y009889D01*
X025841Y009907D01*
X025818Y009929D01*
X025798Y009953D01*
X025781Y009980D01*
X025768Y010008D01*
X025758Y010038D01*
X025752Y010069D01*
X025750Y010100D01*
X025750Y012600D02*
X025752Y012631D01*
X025758Y012662D01*
X025768Y012692D01*
X025781Y012720D01*
X025798Y012747D01*
X025818Y012771D01*
X025841Y012793D01*
X025866Y012811D01*
X025894Y012826D01*
X025923Y012838D01*
X025953Y012846D01*
X025984Y012850D01*
X026016Y012850D01*
X026047Y012846D01*
X026077Y012838D01*
X026106Y012826D01*
X026134Y012811D01*
X026159Y012793D01*
X026182Y012771D01*
X026202Y012747D01*
X026219Y012720D01*
X026232Y012692D01*
X026242Y012662D01*
X026248Y012631D01*
X026250Y012600D01*
X026248Y012569D01*
X026242Y012538D01*
X026232Y012508D01*
X026219Y012480D01*
X026202Y012453D01*
X026182Y012429D01*
X026159Y012407D01*
X026134Y012389D01*
X026106Y012374D01*
X026077Y012362D01*
X026047Y012354D01*
X026016Y012350D01*
X025984Y012350D01*
X025953Y012354D01*
X025923Y012362D01*
X025894Y012374D01*
X025866Y012389D01*
X025841Y012407D01*
X025818Y012429D01*
X025798Y012453D01*
X025781Y012480D01*
X025768Y012508D01*
X025758Y012538D01*
X025752Y012569D01*
X025750Y012600D01*
D17*
X016830Y009660D02*
X016753Y009660D01*
X016446Y009967D01*
X016370Y009967D01*
X016370Y009660D01*
X016446Y009506D02*
X016600Y009506D01*
X016677Y009429D01*
X016677Y009199D01*
X016830Y009199D02*
X016370Y009199D01*
X016370Y009429D01*
X016446Y009506D01*
X016677Y009353D02*
X016830Y009506D01*
X015830Y009506D02*
X015677Y009353D01*
X015677Y009429D02*
X015677Y009199D01*
X015830Y009199D02*
X015370Y009199D01*
X015370Y009429D01*
X015446Y009506D01*
X015600Y009506D01*
X015677Y009429D01*
X015753Y009660D02*
X015830Y009736D01*
X015830Y009890D01*
X015753Y009967D01*
X015677Y009967D01*
X015600Y009890D01*
X015600Y009660D01*
X015753Y009660D01*
X015600Y009660D02*
X015446Y009813D01*
X015370Y009967D01*
X010808Y009350D02*
X010501Y009350D01*
X010731Y009580D01*
X010731Y009120D01*
X010731Y008830D02*
X010578Y008830D01*
X010501Y008754D01*
X010348Y008754D02*
X010271Y008830D01*
X010041Y008830D01*
X010041Y008370D01*
X010271Y008370D01*
X010348Y008447D01*
X010348Y008754D01*
X010655Y008600D02*
X010731Y008600D01*
X010808Y008523D01*
X010808Y008447D01*
X010731Y008370D01*
X010578Y008370D01*
X010501Y008447D01*
X010731Y008600D02*
X010808Y008677D01*
X010808Y008754D01*
X010731Y008830D01*
X010348Y009197D02*
X010348Y009504D01*
X010271Y009580D01*
X010041Y009580D01*
X010041Y009120D01*
X010271Y009120D01*
X010348Y009197D01*
X009887Y009120D02*
X009580Y009120D01*
X009580Y009580D01*
X009887Y009580D01*
X009734Y009350D02*
X009580Y009350D01*
X009427Y009120D02*
X009120Y009120D01*
X009120Y009580D01*
X007848Y009120D02*
X007541Y009120D01*
X007694Y009120D02*
X007694Y009580D01*
X007541Y009427D01*
X007234Y009580D02*
X007234Y009120D01*
X007387Y009120D02*
X007080Y009120D01*
X006927Y009120D02*
X006773Y009273D01*
X006850Y009273D02*
X006620Y009273D01*
X006620Y009120D02*
X006620Y009580D01*
X006850Y009580D01*
X006927Y009504D01*
X006927Y009350D01*
X006850Y009273D01*
X007080Y009427D02*
X007234Y009580D01*
X007234Y008830D02*
X007234Y008370D01*
X007387Y008370D02*
X007080Y008370D01*
X006927Y008370D02*
X006773Y008523D01*
X006850Y008523D02*
X006620Y008523D01*
X006620Y008370D02*
X006620Y008830D01*
X006850Y008830D01*
X006927Y008754D01*
X006927Y008600D01*
X006850Y008523D01*
X007080Y008677D02*
X007234Y008830D01*
X007541Y008754D02*
X007618Y008830D01*
X007771Y008830D01*
X007848Y008754D01*
X007541Y008447D01*
X007618Y008370D01*
X007771Y008370D01*
X007848Y008447D01*
X007848Y008754D01*
X007541Y008754D02*
X007541Y008447D01*
X007311Y008080D02*
X007157Y008080D01*
X007080Y008004D01*
X007080Y007927D01*
X007157Y007850D01*
X007387Y007850D01*
X007387Y007697D02*
X007311Y007620D01*
X007157Y007620D01*
X007080Y007697D01*
X006927Y007620D02*
X006773Y007773D01*
X006850Y007773D02*
X006620Y007773D01*
X006620Y007620D02*
X006620Y008080D01*
X006850Y008080D01*
X006927Y008004D01*
X006927Y007850D01*
X006850Y007773D01*
X006850Y007330D02*
X006620Y007330D01*
X006620Y006870D01*
X006620Y007023D02*
X006850Y007023D01*
X006927Y007100D01*
X006927Y007254D01*
X006850Y007330D01*
X007080Y007254D02*
X007080Y007177D01*
X007157Y007100D01*
X007311Y007100D01*
X007387Y007023D01*
X007387Y006947D01*
X007311Y006870D01*
X007157Y006870D01*
X007080Y006947D01*
X007080Y007023D01*
X007157Y007100D01*
X007311Y007100D02*
X007387Y007177D01*
X007387Y007254D01*
X007311Y007330D01*
X007157Y007330D01*
X007080Y007254D01*
X006773Y007023D02*
X006927Y006870D01*
X006850Y006580D02*
X006620Y006580D01*
X006620Y006120D01*
X006620Y006273D02*
X006850Y006273D01*
X006927Y006350D01*
X006927Y006504D01*
X006850Y006580D01*
X007080Y006427D02*
X007234Y006580D01*
X007234Y006120D01*
X007387Y006120D02*
X007080Y006120D01*
X006927Y006120D02*
X006773Y006273D01*
X007541Y006120D02*
X007848Y006427D01*
X007848Y006504D01*
X007771Y006580D01*
X007618Y006580D01*
X007541Y006504D01*
X007541Y006120D02*
X007848Y006120D01*
X009120Y006120D02*
X009427Y006120D01*
X009580Y006120D02*
X009887Y006120D01*
X010041Y006120D02*
X010271Y006120D01*
X010348Y006197D01*
X010348Y006504D01*
X010271Y006580D01*
X010041Y006580D01*
X010041Y006120D01*
X009734Y006350D02*
X009580Y006350D01*
X009580Y006580D02*
X009580Y006120D01*
X009120Y006120D02*
X009120Y006580D01*
X009120Y006870D02*
X009427Y006870D01*
X009580Y006870D02*
X009887Y006870D01*
X010041Y006870D02*
X010271Y006870D01*
X010348Y006947D01*
X010348Y007254D01*
X010271Y007330D01*
X010041Y007330D01*
X010041Y006870D01*
X009887Y006580D02*
X009580Y006580D01*
X009580Y006870D02*
X009580Y007330D01*
X009887Y007330D01*
X009734Y007100D02*
X009580Y007100D01*
X009120Y007330D02*
X009120Y006870D01*
X009120Y007620D02*
X009427Y007620D01*
X009580Y007620D02*
X009887Y007620D01*
X010041Y007620D02*
X010271Y007620D01*
X010348Y007697D01*
X010348Y008004D01*
X010271Y008080D01*
X010041Y008080D01*
X010041Y007620D01*
X009734Y007850D02*
X009580Y007850D01*
X009580Y008080D02*
X009580Y007620D01*
X009120Y007620D02*
X009120Y008080D01*
X009120Y008370D02*
X009427Y008370D01*
X009580Y008370D02*
X009887Y008370D01*
X009734Y008600D02*
X009580Y008600D01*
X009580Y008830D02*
X009580Y008370D01*
X009580Y008080D02*
X009887Y008080D01*
X010501Y008004D02*
X010578Y008080D01*
X010731Y008080D01*
X010808Y008004D01*
X010808Y007927D01*
X010501Y007620D01*
X010808Y007620D01*
X010655Y007330D02*
X010655Y006870D01*
X010808Y006870D02*
X010501Y006870D01*
X010501Y006580D02*
X010501Y006350D01*
X010655Y006427D01*
X010731Y006427D01*
X010808Y006350D01*
X010808Y006197D01*
X010731Y006120D01*
X010578Y006120D01*
X010501Y006197D01*
X010501Y006580D02*
X010808Y006580D01*
X010501Y007177D02*
X010655Y007330D01*
X009120Y008370D02*
X009120Y008830D01*
X009580Y008830D02*
X009887Y008830D01*
X007387Y008004D02*
X007387Y007697D01*
X007387Y008004D02*
X007311Y008080D01*
D18*
X010321Y005871D03*
X010321Y005329D03*
X010321Y004871D03*
X010321Y004329D03*
X010321Y003871D03*
X010321Y003329D03*
X010321Y002871D03*
X010321Y002329D03*
X010321Y001871D03*
X010321Y001329D03*
D19*
X010169Y001600D03*
X010169Y002600D03*
X010169Y003600D03*
X010169Y004600D03*
X010169Y005600D03*
M02*
