%
M48
M72
T01C0.0236
T02C0.0315
T03C0.0320
T04C0.0400
T05C0.0550
%
T01
X11600Y1100
X5600Y7100
T02
X12600Y6600
X12600Y7600
X12600Y8600
X12600Y9600
X12600Y10600
X12600Y11600
X12600Y12600
X12600Y13600
X12600Y14600
X12600Y15600
X14600Y15100
X15600Y15100
X16600Y15100
X16600Y16100
X15600Y16100
X14600Y16100
X18600Y15600
X18600Y14600
X18600Y13600
X18600Y12600
X18600Y11600
X18600Y10600
X18600Y9600
X18600Y8600
X18600Y7600
X18600Y6600
X18600Y5600
X18600Y4600
X18600Y3600
X18600Y2600
X18600Y1600
X12600Y1600
X12600Y2600
X12600Y3600
X12600Y4600
X12600Y5600
T03
X23600Y5600
X24600Y5600
X25600Y5600
X25600Y3100
X24600Y3100
X23600Y3100
X23600Y8100
X24600Y8100
X25600Y8100
X25600Y10600
X24600Y10600
X23600Y10600
X23600Y13100
X24600Y13100
X25600Y13100
T04
X4100Y13600
X4100Y14600
X4100Y15600
X2100Y15600
X2100Y14600
X2100Y13600
X2100Y11600
X2100Y10600
X2100Y9600
X4100Y9600
X4100Y10600
X4100Y11600
T05
X4100Y2600
X4100Y4600
M30
